<svg width="422" height="53" viewBox="0 0 422 53" fill="none" xmlns="http://www.w3.org/2000/svg">
<g clip-path="url(#clip0_4277_3045)">
<path d="M108.63 48.0416C106.014 48.0416 103.585 47.8547 100.969 47.2942C98.9137 46.9205 97.0453 46.1731 95.1768 45.2389C93.682 44.3046 92.3741 43.1835 91.6267 41.6888C90.6925 40.194 90.3188 38.5124 90.3188 36.8308C90.3188 35.1491 90.8793 33.4675 91.8136 31.9728C92.9346 30.478 94.2426 29.1701 95.9242 28.2358C97.9795 27.1147 100.222 26.1805 102.464 25.62C105.267 24.8726 108.069 24.1252 111.059 23.7515C114.235 23.191 117.598 22.8173 121.335 22.4436C125.072 22.0699 128.996 21.883 132.92 21.6962V18.5198C132.92 17.3987 132.733 16.2776 132.172 15.1566C131.612 14.2223 130.864 13.2881 130.117 12.5407C129.183 11.7933 128.062 11.2328 126.941 10.6722C125.633 10.1117 124.325 9.73801 123.017 9.55116C121.522 9.17747 120.027 8.99062 118.533 8.99062C117.038 8.99062 115.356 8.80377 113.861 8.80377C112.367 8.80377 109.938 8.80377 108.069 9.17747C106.388 9.17747 104.706 9.55116 103.211 9.92485C101.716 10.2985 100.222 10.6722 98.9137 11.2328C97.6058 11.6065 96.111 12.167 94.6163 12.7276V8.43008C97.6058 7.6827 100.782 7.12216 103.959 6.56162C107.509 6.00108 111.059 5.62738 114.609 5.81423C117.598 5.81423 120.588 6.00108 123.577 6.56162C126.006 6.93531 128.622 7.86954 130.678 8.99062C132.733 10.1117 134.228 11.6065 135.536 13.2881C136.844 15.3434 137.404 17.5856 137.217 19.8277V47.8547H133.294V43.1835C131.612 44.1178 129.93 44.6783 128.062 45.4257C126.006 46.1731 123.951 46.7336 121.896 47.1073C119.654 47.6679 117.598 48.0416 115.356 48.2284C113.114 48.6021 110.872 48.6021 108.63 48.6021V48.0416ZM133.107 24.6857C126.193 25.0594 120.214 25.62 115.356 26.1805C111.246 26.741 107.322 27.4884 103.398 28.6095C100.969 29.3569 98.54 30.478 96.4847 31.9728C95.1768 33.0938 94.2426 34.5886 94.2426 36.2702C94.2426 37.5782 94.6163 38.6992 95.3636 39.8203C96.111 40.9414 97.2321 41.8756 98.3532 42.4362C99.848 43.1835 101.53 43.7441 103.211 43.9309C105.267 44.3046 107.509 44.4915 109.564 44.4915C111.059 44.4915 112.367 44.4915 113.861 44.3046C115.356 44.3046 116.851 43.9309 118.346 43.7441C119.841 43.5572 121.335 43.1835 122.643 42.8099C123.951 42.4362 125.446 42.0625 126.754 41.6888C127.875 41.3151 129.183 40.7545 130.304 40.194C131.238 39.8203 132.172 39.2598 132.92 38.6992V24.6857H133.107Z" fill="#ECF2FE"/>
<path d="M170.853 48.0436H165.247L144.694 5.06885H148.805L168.05 45.2409L187.295 5.06885H191.406L170.666 48.0436H170.853Z" fill="#ECF2FE"/>
<path d="M203.178 48.0436H207.102V5.06885H203.178V48.0436Z" fill="#ECF2FE"/>
<path d="M233.073 48.2327C230.457 48.2327 228.028 48.0458 225.412 47.4853C223.356 47.1116 221.488 46.3642 219.62 45.2431C218.125 44.3089 216.817 43.1878 216.069 41.6931C215.135 40.1983 214.762 38.5167 214.762 36.835C214.762 35.1534 215.322 33.4718 216.256 31.977C217.377 30.4823 218.685 29.1743 220.367 28.2401C222.422 27.119 224.664 26.1848 226.907 25.6243C229.709 24.8769 232.699 24.1295 235.502 23.7558C238.678 23.1953 242.041 22.8216 245.778 22.4479C249.515 22.0742 253.439 21.8873 257.363 21.7005V18.5241C257.363 17.403 257.176 16.0951 256.615 15.1608C256.055 14.2266 255.307 13.2924 254.56 12.545C253.626 11.7976 252.505 11.2371 251.383 10.6765C250.076 10.116 248.768 9.7423 247.46 9.55545C245.965 9.18176 244.47 8.99491 242.975 8.99491C241.294 8.99491 239.799 8.80806 238.304 8.80806C236.809 8.80806 234.38 8.80806 232.512 9.18176C230.83 9.18176 229.149 9.55545 227.654 9.92914C226.159 10.3028 224.664 10.6765 223.356 11.2371C222.049 11.6108 220.741 12.1713 219.059 12.7318V8.24752C222.049 7.50014 225.225 6.75275 228.401 6.37906C231.951 5.81852 235.502 5.44482 239.052 5.44482C242.041 5.44482 245.031 5.63167 247.833 6.19221C250.449 6.5659 252.691 7.50014 254.934 8.62122C256.989 9.7423 258.484 11.2371 259.792 12.9187C260.913 14.974 261.66 17.2162 261.473 19.4583V47.6722H257.549V43.001C255.868 43.9352 254.186 44.4958 252.318 45.2431C250.262 45.9905 248.207 46.5511 246.152 46.9248C243.91 47.4853 241.667 47.859 239.612 48.0458C237.37 48.2327 235.128 48.4195 233.073 48.4195V48.2327ZM257.736 24.8769C250.823 25.2506 244.844 25.8111 239.986 26.3716C235.875 26.9322 231.951 27.6796 228.028 28.8006C225.599 29.548 223.17 30.6691 221.114 32.1639C219.806 33.285 218.872 34.9666 218.872 36.6482C218.872 37.9561 219.246 39.0772 219.993 40.1983C220.741 41.3194 221.862 42.2536 222.983 42.8141C224.478 43.5615 226.159 44.1221 227.841 44.3089C229.896 44.6826 232.138 44.8695 234.194 44.8695C235.688 44.8695 237.183 44.8695 238.491 44.6826C239.986 44.6826 241.481 44.3089 242.975 44.1221C244.47 43.9352 245.965 43.5615 247.273 43.1878C248.581 42.8141 250.076 42.4404 251.383 41.8799C252.505 41.5062 253.812 40.9457 254.934 40.3851C255.868 40.0114 256.802 39.4509 257.549 38.8904V24.8769H257.736Z" fill="#ECF2FE"/>
<path d="M292.675 8.61893V48.0436H288.751V8.61893H269.319V5.06885H312.107V8.61893H292.675Z" fill="#ECF2FE"/>
<path d="M352.651 8.80578C351.343 8.61893 350.036 8.43209 348.541 8.43209C346.299 8.43209 344.243 8.61893 342.188 9.17947C340.319 9.74001 338.264 10.4874 336.583 11.4216C334.901 12.3559 333.219 13.4769 331.725 14.7849C330.23 16.0928 328.922 17.4007 327.801 18.8955V48.0436H323.877V6.18993H327.801V14.7849C329.109 13.2901 330.603 11.9822 332.285 10.8611C333.967 9.74001 335.648 8.61893 337.33 7.87155C339.198 6.93731 341.067 6.37677 342.935 5.81623C344.991 5.25569 346.859 5.06885 348.914 5.06885C350.97 5.06885 350.222 5.06885 350.783 5.06885C351.343 5.06885 351.904 5.06885 352.278 5.06885C352.838 5.06885 353.212 5.06885 353.586 5.06885C353.959 5.06885 354.52 5.06885 354.894 5.25569V8.99263C354.333 8.99263 353.586 8.61893 352.465 8.43209" fill="#ECF2FE"/>
<path d="M359.006 48.0436H362.929V5.06885H359.006V48.0436Z" fill="#ECF2FE"/>
<path d="M397.871 28.6115L379.373 48.0436H374.515L395.442 25.9957L375.636 5.06885H380.494L397.871 23.3798L415.435 5.06885H420.293L400.3 25.9957L421.227 48.0436H416.369L397.871 28.6115Z" fill="#ECF2FE"/>
<path d="M64.9109 35.5259L58.1844 26.5573L45.6657 10.1148L41.7419 5.06991C38.5655 0.772434 32.3996 -0.161799 28.1021 3.20144C27.3548 3.76198 26.7942 4.32252 26.2337 5.06991L22.3099 10.1148L9.79118 26.5573L3.0647 35.5259C-0.29854 40.0102 0.448847 46.363 4.74632 49.9131C6.42794 51.4079 8.6701 52.1553 10.9123 52.1553C13.1544 52.1553 16.8913 50.6605 18.7598 48.2315L22.6836 43.1866L32.7733 30.1073L27.9153 19.8308L32.0259 25.2493L34.2681 28.052L45.8526 43.1866L49.5895 48.2315C51.458 50.6605 54.2607 52.1553 57.4371 52.1553C60.6134 52.1553 61.9214 51.4079 63.603 49.9131C67.9005 46.363 68.6479 40.0102 65.2846 35.5259" fill="#ECF2FE"/>
</g>
<defs>
<clipPath id="clip0_4277_3045">
<rect width="420.405" height="52.317" fill="white" transform="translate(0.822174 0.396484)"/>
</clipPath>
</defs>
</svg>
