<svg width="187" height="93" viewBox="0 0 187 93" fill="none" xmlns="http://www.w3.org/2000/svg">
<path fill-rule="evenodd" clip-rule="evenodd" d="M0.0148926 0H186.861L94.4648 92.3967H0.0148926V0ZM92.4209 62.0133V18.4842H110.9C128.558 18.4842 136.771 24.2334 136.771 38.1955C136.771 50.5151 128.148 57.4962 113.775 57.4962H108.026V73.9222H80.1013L78.0481 66.9412C71.8883 68.9944 64.9072 68.5838 58.7474 66.9412L55.8729 73.9222H40.2681L41.0894 70.2264C36.5722 74.3329 28.3592 75.9755 23.0207 75.9755C15.2183 75.9755 8.64789 74.3329 2.48811 70.637L8.23724 59.5494C14.397 63.2453 18.5035 64.0666 23.4314 63.6559C26.3059 63.6559 30.4124 62.8346 30.8231 59.1388C30.8231 56.2642 26.7166 54.6216 21.3781 52.979C17.2716 51.747 12.7544 50.1044 9.05854 47.6405C4.54137 44.3553 2.48811 40.2488 2.48811 34.4997C2.89877 30.3931 4.13072 26.6973 7.00529 23.8227C11.1118 19.7162 17.6822 17.2523 25.4846 17.2523C32.055 17.2523 40.2681 18.8949 46.4279 22.1801L39.8574 33.2677C34.0171 30.3475 30.7724 30.0231 27.5277 29.6986C27.1222 29.658 26.7166 29.6175 26.3059 29.5718C20.9674 29.1612 18.0929 31.2145 18.0929 33.2677C18.0929 36.1423 23.4314 38.1955 28.3592 39.8381C35.7509 42.3021 45.1959 45.5873 46.8385 54.6216L60.39 18.4842H76.4054L92.4209 62.0133ZM68.1924 36.1423L62.4433 54.6216C66.1392 55.8536 70.2457 55.8536 74.3522 54.6216L68.6031 36.1423H68.1924ZM108.026 30.3931V45.1766H112.132C117.471 45.1766 121.577 43.1234 121.577 37.3742C121.577 32.0358 117.471 30.3931 112.132 30.3931H108.026Z" fill="#ECF2FE"/>
</svg>
